<?xml version="1.0" encoding="UTF-8"?>
<svg id="Layer_1" xmlns="http://www.w3.org/2000/svg" version="1.1" viewBox="0 0 612 792">
  <!-- Generator: Adobe Illustrator 29.1.0, SVG Export Plug-In . SVG Version: 2.1.0 Build 142)  -->
  <defs>
    <style>
      .st0 {
        fill: #fcee30;
      }
    </style>
  </defs>
  <path class="st0" d="M70.38,223.22l-.79-32.68-93.31-32.94-21.35,25.57c-8.33,9.97-14.72,16.43-19.17,19.38-4.45,2.95-10.11,3.21-17,.78-5.85-2.06-10.26-6.03-13.23-11.89-2.98-5.86-3.51-11.51-1.59-16.94,1.11-3.13,2.77-6.18,4.99-9.15,2.22-2.97,5.58-7.01,10.09-12.11L30.34,24.91c3.18-3.69,7-8.12,11.47-13.29,4.47-5.17,8.73-9.27,12.79-12.3,4.06-3.03,8.69-5,13.89-5.93,5.2-.92,10.98-.26,17.35,1.99s11.44,5.42,14.91,9.4c3.46,3.98,5.85,8.38,7.15,13.18,1.3,4.8,2.08,9.74,2.34,14.82.26,5.08.49,11.83.69,20.23l7.68,169.28c.72,12.93.17,21.95-1.63,27.07-1.88,5.32-5.82,9.42-11.82,12.29-6,2.87-12.13,3.2-18.4.99-3.65-1.29-6.56-3.05-8.7-5.27-2.15-2.23-3.72-4.77-4.7-7.64-.98-2.87-1.67-6.99-2.07-12.35-.4-5.36-.7-10.08-.91-14.14ZM.81,127l68.58,24.21-1.16-106.94L.81,127Z"/>
  <path class="st0" d="M1087.03,3.65c6.84,13.39,9.54,27.17,8.1,41.36-1.44,14.19-7.26,27.7-17.46,40.53-10.2,12.83-24.4,23.9-42.62,33.21-21.84,11.16-41.96,16.25-60.37,15.25-13.1-.79-25.33-4.54-36.68-11.24-11.36-6.7-19.43-14.73-24.21-24.08-2.78-5.43-3.27-11.05-1.48-16.86,1.79-5.8,5.61-10.2,11.45-13.18,4.73-2.42,9.5-2.95,14.32-1.61,4.81,1.35,9.89,4.4,15.25,9.15,6.42,5.61,12.47,9.94,18.16,12.99,5.69,3.06,12.28,4.61,19.79,4.64,7.51.04,16.09-2.42,25.75-7.36,13.28-6.79,22.49-15.4,27.63-25.83,5.14-10.43,5.34-20.28.61-29.54-3.75-7.35-9.04-12.16-15.86-14.45-6.82-2.29-14.39-2.83-22.72-1.62-8.33,1.21-19.13,3.49-32.39,6.85-17.8,4.41-33.34,6.85-46.6,7.35-13.26.5-25.24-1.95-35.93-7.34-10.69-5.39-19.3-14.47-25.83-27.25-6.22-12.18-8.43-24.69-6.63-37.55,1.81-12.85,7.7-25.04,17.68-36.55,9.98-11.51,23.47-21.61,40.48-30.31,13.59-6.94,26.2-11.26,37.83-12.96,11.64-1.69,22.15-1.42,31.55.82,9.39,2.24,17.17,5.66,23.33,10.26,6.16,4.6,10.73,9.81,13.71,15.65,2.73,5.33,3.3,11.1,1.71,17.31-1.59,6.21-5.2,10.75-10.83,13.63-5.13,2.62-9.69,3.33-13.67,2.13-3.98-1.2-9.02-3.92-15.12-8.17-8.3-6.29-16.46-10.34-24.48-12.14-8.03-1.8-18.28.49-30.76,6.87-11.57,5.92-19.61,13.23-24.1,21.94-4.5,8.71-4.92,16.64-1.27,23.78,2.26,4.43,5.43,7.64,9.49,9.62,4.06,1.99,8.8,3.06,14.21,3.21,5.41.16,10.61-.22,15.61-1.12,5-.9,13.12-2.64,24.37-5.22,13.97-3.46,26.91-6.01,38.83-7.66,11.91-1.65,22.71-1.77,32.37-.36,9.67,1.41,18.45,4.94,26.37,10.61,7.91,5.67,14.72,14.09,20.43,25.26Z"/>
  <path class="st0" d="M854.56,140.93l24.22,71.71,24.29-72.22c1.26-3.79,2.21-6.43,2.84-7.91.63-1.48,1.68-2.82,3.14-4.01,1.46-1.19,3.45-1.79,5.98-1.79,1.85,0,3.56.46,5.14,1.39,1.58.92,2.82,2.15,3.72,3.68.9,1.53,1.35,3.08,1.35,4.63,0,1.07-.15,2.22-.44,3.47s-.66,2.46-1.09,3.65c-.44,1.19-.88,2.42-1.31,3.68l-25.9,69.88c-.92,2.68-1.85,5.22-2.77,7.62-.92,2.41-1.99,4.52-3.21,6.35-1.22,1.82-2.83,3.32-4.85,4.49-2.02,1.17-4.49,1.75-7.4,1.75s-5.39-.57-7.4-1.71c-2.02-1.14-3.65-2.65-4.89-4.52-1.24-1.87-2.32-4-3.25-6.38-.92-2.38-1.85-4.91-2.77-7.59l-25.46-69.3c-.44-1.26-.89-2.5-1.35-3.72-.46-1.22-.85-2.53-1.17-3.94-.32-1.41-.47-2.6-.47-3.57,0-2.48,1-4.74,2.99-6.78,1.99-2.04,4.5-3.06,7.51-3.06,3.7,0,6.31,1.13,7.84,3.39s3.1,5.87,4.71,10.83Z"/>
  <path class="st0" d="M977.62,219.35l-17.14-68.13v73.82c0,4.09-.91,7.15-2.74,9.19s-4.24,3.06-7.26,3.06-5.3-1.01-7.15-3.03c-1.85-2.02-2.77-5.09-2.77-9.23v-84.62c0-4.67,1.22-7.82,3.65-9.45,2.43-1.63,5.71-2.44,9.85-2.44h6.71c4.04,0,6.97.36,8.79,1.09s3.17,2.04,4.05,3.94,1.87,4.99,2.99,9.26l15.54,58.58,15.54-58.58c1.12-4.28,2.12-7.37,2.99-9.26s2.22-3.21,4.05-3.94,4.75-1.09,8.79-1.09h6.71c4.13,0,7.42.82,9.85,2.44,2.43,1.63,3.65,4.78,3.65,9.45v84.62c0,4.09-.91,7.15-2.74,9.19s-4.27,3.06-7.33,3.06c-2.87,0-5.23-1.02-7.08-3.06-1.85-2.04-2.77-5.11-2.77-9.19v-73.82l-17.14,68.13c-1.12,4.43-2.03,7.67-2.74,9.74-.71,2.07-2.01,3.95-3.9,5.65s-4.52,2.55-7.88,2.55c-2.53,0-4.67-.55-6.42-1.64s-3.11-2.49-4.09-4.19c-.97-1.7-1.74-3.59-2.3-5.65-.56-2.07-1.13-4.22-1.71-6.46Z"/>
  <path class="st0" d="M1087.77,139.84v30.64h46.76v-30.64c0-4.38.98-7.66,2.95-9.85s4.56-3.28,7.77-3.28,5.9,1.08,7.91,3.25c2.02,2.16,3.03,5.46,3.03,9.88v84.26c0,4.43-1.02,7.73-3.06,9.92s-4.67,3.28-7.88,3.28-5.86-1.11-7.81-3.32c-1.95-2.21-2.92-5.51-2.92-9.88v-35.96h-46.76v35.96c0,4.43-1.02,7.73-3.06,9.92s-4.67,3.28-7.88,3.28-5.86-1.11-7.81-3.32c-1.95-2.21-2.92-5.51-2.92-9.88v-84.26c0-4.38.96-7.66,2.88-9.85,1.92-2.19,4.53-3.28,7.84-3.28s5.9,1.08,7.91,3.25c2.02,2.16,3.03,5.46,3.03,9.88Z"/>
  <path class="st0" d="M1220.98,193.82h-19.84v30.27c0,4.33-1.02,7.61-3.06,9.85s-4.62,3.36-7.73,3.36-5.88-1.11-7.88-3.32c-2-2.21-2.99-5.46-2.99-9.74v-82.43c0-4.77,1.09-8.17,3.28-10.21s5.66-3.06,10.43-3.06h27.79c8.22,0,14.54.63,18.97,1.9,4.38,1.22,8.16,3.23,11.34,6.05,3.18,2.82,5.6,6.27,7.26,10.36,1.65,4.09,2.48,8.68,2.48,13.79,0,10.89-3.36,19.15-10.07,24.77-6.71,5.62-16.71,8.43-29.98,8.43ZM1215.72,144.8h-14.59v32.68h14.59c5.11,0,9.37-.53,12.8-1.6,3.43-1.07,6.04-2.82,7.84-5.25,1.8-2.43,2.7-5.62,2.7-9.56,0-4.72-1.39-8.56-4.16-11.53-3.11-3.16-9.51-4.74-19.19-4.74Z"/>
  <path class="st0" d="M136.33,744.47c-1.94,6.78-5.71,13.65-11.31,20.59-5.6,6.94-13.07,13.19-22.41,18.75-9.35,5.56-20.27,9.12-32.76,10.68-12.5,1.56-26.16.23-40.99-4.01-11.24-3.21-21.16-7.2-29.75-11.96-8.6-4.76-16.01-10.47-22.23-17.12-6.22-6.65-11.43-14.56-15.62-23.72-3.71-8.29-6.37-17.15-7.97-26.57-1.61-9.42-2.06-19.11-1.36-29.08.7-9.97,2.56-20.23,5.57-30.79,4.9-17.15,11.78-31.8,20.65-43.94,8.86-12.14,19.33-21.7,31.38-28.69,12.06-6.98,25.05-11.21,38.99-12.68,13.94-1.47,27.98-.18,42.13,3.86,17.25,4.93,31.62,12.76,43.13,23.48,11.5,10.73,19.39,22.18,23.67,34.35,4.28,12.18,5.13,22.77,2.55,31.78-1.41,4.94-4.4,8.8-8.97,11.59-4.57,2.78-9.32,3.47-14.26,2.06-5.52-1.58-9.29-4.07-11.31-7.47-2.01-3.41-3.8-8.79-5.37-16.15-2.6-12.17-6.96-21.95-13.07-29.36-6.11-7.41-14.74-12.7-25.88-15.88-17.73-5.07-33.78-2.37-48.14,8.1-14.36,10.47-25.09,28.1-32.17,52.91-4.73,16.57-6.35,31.02-4.84,43.34,1.51,12.33,5.75,22.42,12.73,30.28,6.98,7.86,16.18,13.43,27.62,16.69,12.4,3.54,23.77,3.47,34.1-.24,10.33-3.7,19.38-10.89,27.15-21.56,3.45-5.09,7.03-9.02,10.76-11.78,3.72-2.76,8.59-3.28,14.6-1.57,5.13,1.47,9.03,4.52,11.69,9.16,2.66,4.64,3.22,9.62,1.7,14.95Z"/>
  <path class="st0" d="M763.44,319.12v77.84h43.91c3.5,0,6.19.85,8.06,2.55,1.87,1.7,2.81,3.84,2.81,6.42s-.92,4.75-2.77,6.38c-1.85,1.63-4.55,2.44-8.1,2.44h-52.3c-4.72,0-8.11-1.04-10.18-3.14-2.07-2.09-3.1-5.47-3.1-10.14v-82.36c0-4.38.98-7.66,2.95-9.85s4.56-3.28,7.77-3.28,5.9,1.08,7.91,3.25c2.02,2.16,3.03,5.46,3.03,9.88Z"/>
  <path class="st0" d="M1060.33,246.29l45.87,96.65c3.98,8.39,7.01,15.69,9.08,21.9,2.07,6.21,3.29,12.93,3.64,20.17.62,12.14-2.55,23.33-9.51,33.58-6.96,10.24-17.36,18.65-31.2,25.22-12.5,5.93-23.86,8.91-34.08,8.93-10.22.02-19.98-3.16-29.28-9.54-4.91-3.42-9.66-7.8-14.25-13.13-4.59-5.33-8.19-10.76-10.82-16.3-2.79-5.87-3.28-11.14-1.48-15.79,1.8-4.66,5.26-8.2,10.37-10.63s9.36-2.69,13.23-1.04c3.87,1.66,7.91,5.19,12.12,10.59,4.49,5.78,8.37,10.27,11.62,13.45,3.26,3.18,7.22,5.36,11.89,6.54,4.67,1.18,10.11.29,16.32-2.66,16.53-7.84,19.04-23.89,7.53-48.13l-48.44-102.06c-3.58-7.55-4.62-14-3.09-19.35,1.52-5.35,5.13-9.38,10.84-12.08s11.28-3.04,16.47-.88c5.19,2.16,9.58,7.02,13.16,14.57Z"/>
  <path class="st0" d="M939.32,319.12v77.84h43.91c3.5,0,6.19.85,8.06,2.55,1.87,1.7,2.81,3.84,2.81,6.42s-.92,4.75-2.77,6.38c-1.85,1.63-4.55,2.44-8.1,2.44h-52.3c-4.72,0-8.11-1.04-10.18-3.14-2.07-2.09-3.1-5.47-3.1-10.14v-82.36c0-4.38.98-7.66,2.95-9.85s4.56-3.28,7.77-3.28,5.9,1.08,7.91,3.25c2.02,2.16,3.03,5.46,3.03,9.88Z"/>
  <path class="st0" d="M67.96,535.01H-3.72c-10.35,0-17.74-2.32-22.16-6.96-4.43-4.64-6.64-12.03-6.64-22.16v-176.33c0-10.35,2.26-17.79,6.8-22.32,4.53-4.53,11.86-6.8,22-6.8h76c11.2,0,20.91.69,29.12,2.08,8.21,1.39,15.57,4.05,22.08,8,5.54,3.31,10.45,7.5,14.72,12.56,4.26,5.07,7.52,10.67,9.76,16.8,2.24,6.13,3.36,12.62,3.36,19.44,0,23.47-11.74,40.64-35.2,51.52,30.83,9.82,46.24,28.91,46.24,57.28,0,13.12-3.36,24.94-10.08,35.44-6.72,10.51-15.79,18.27-27.2,23.28-7.15,2.99-15.36,5.09-24.64,6.32-9.28,1.23-20.11,1.84-32.48,1.84ZM15,336.12v60.64h43.52c11.84,0,20.99-1.12,27.44-3.36,6.45-2.24,11.38-6.51,14.8-12.8,2.66-4.48,4-9.49,4-15.04,0-11.84-4.22-19.71-12.64-23.6-8.43-3.89-21.28-5.84-38.56-5.84H15ZM64.44,430.84H15v68.48h51.04c32.11,0,48.16-11.57,48.16-34.72,0-11.84-4.16-20.43-12.48-25.76-8.32-5.33-20.75-8-37.28-8Z"/>
  <path class="st0" d="M1162.84,305.99c11.09,0,20.61,2.25,28.56,6.75,7.95,4.5,13.97,10.89,18.05,19.19,4.09,8.29,6.13,18.03,6.13,29.22,0,8.27-1.12,15.78-3.36,22.54-2.24,6.76-5.59,12.62-10.07,17.58-4.48,4.96-9.97,8.75-16.49,11.38-6.52,2.63-13.98,3.94-22.4,3.94s-15.86-1.35-22.47-4.05c-6.61-2.7-12.13-6.5-16.56-11.42-4.43-4.91-7.77-10.82-10.03-17.73-2.26-6.91-3.39-14.37-3.39-22.4s1.18-15.76,3.54-22.61c2.36-6.86,5.77-12.69,10.25-17.51,4.47-4.81,9.92-8.5,16.34-11.05,6.42-2.55,13.71-3.83,21.88-3.83ZM1193.62,360.99c0-7.83-1.27-14.61-3.79-20.35-2.53-5.74-6.14-10.08-10.83-13.02-4.69-2.94-10.08-4.41-16.16-4.41-4.33,0-8.33.82-12,2.44-3.67,1.63-6.83,4-9.48,7.11-2.65,3.11-4.74,7.09-6.27,11.93-1.53,4.84-2.3,10.27-2.3,16.3s.77,11.58,2.3,16.49c1.53,4.91,3.69,8.99,6.49,12.22,2.8,3.23,6.01,5.65,9.63,7.26,3.62,1.6,7.6,2.41,11.93,2.41,5.54,0,10.64-1.39,15.28-4.16,4.64-2.77,8.34-7.05,11.09-12.84,2.75-5.79,4.12-12.91,4.12-21.37Z"/>
  <path class="st0" d="M444.92,188.21l73.81-56.65-20.84-78.63c-1.9-7.59-3.11-13.97-3.61-19.14-.5-5.17-.08-9.83,1.28-14,1.39-4.27,4.55-7.48,9.47-9.64,4.92-2.16,10.12-2.34,15.61-.55,6.3,2.06,10.59,5.51,12.88,10.36,2.29,4.85,4.89,13.32,7.8,25.39l15.8,65.18,53.52-42.54c4.44-3.61,8.23-6.7,11.37-9.27,3.14-2.57,6.03-4.61,8.66-6.11,2.62-1.5,5.31-2.4,8.04-2.68,2.73-.29,5.68.08,8.82,1.11,5.69,1.86,9.78,5.08,12.27,9.66,2.49,4.58,2.98,9.21,1.45,13.88-2.22,6.81-9.15,14.77-20.79,23.89l-65.53,51.43,23.54,88.45c2.18,7.79,3.54,14.11,4.09,18.96.55,4.85.21,9.15-1.01,12.9-1.16,3.56-3.09,6.52-5.77,8.9-2.69,2.38-5.89,3.92-9.6,4.62-3.71.7-7.55.4-11.51-.89-4.27-1.39-7.58-3.46-9.95-6.2-2.37-2.74-4.03-5.73-4.99-8.97-.97-3.24-2.69-9.48-5.18-18.72l-19.1-74.69-62.54,50.04c-4.91,4.02-8.38,6.82-10.42,8.4-2.04,1.58-4.33,3.02-6.89,4.32-2.56,1.3-5.34,2.07-8.35,2.33-3.01.25-6.29-.2-9.84-1.36-5.48-1.79-9.48-4.95-11.99-9.48-2.51-4.53-2.72-9.99-.63-16.39,2.45-7.51,9.16-15.49,20.13-23.94Z"/>
  <path class="st0" d="M717.63,580.76c3.16,2.14,6.61,4.22,10.36,6.24,3.74,2.02,6.22,3.62,7.44,4.81,1.22,1.19,1.82,2.88,1.82,5.07,0,1.56-.72,3.11-2.15,4.67-1.44,1.56-3.17,2.33-5.22,2.33-1.65,0-3.66-.54-6.02-1.6-2.36-1.07-5.13-2.63-8.32-4.67-3.19-2.04-6.67-4.42-10.47-7.15-7.05,3.6-15.71,5.4-25.97,5.4-8.32,0-15.77-1.33-22.36-3.98-6.59-2.65-12.12-6.47-16.6-11.45-4.47-4.98-7.84-10.91-10.1-17.76s-3.39-14.32-3.39-22.4,1.18-15.76,3.54-22.61c2.36-6.86,5.77-12.69,10.25-17.51,4.47-4.81,9.92-8.5,16.34-11.05s13.71-3.83,21.88-3.83c11.09,0,20.61,2.25,28.56,6.75,7.95,4.5,13.97,10.89,18.05,19.19,4.09,8.29,6.13,18.03,6.13,29.22,0,16.97-4.6,30.42-13.79,40.34ZM700.63,568.94c3.01-3.45,5.24-7.54,6.67-12.26,1.43-4.72,2.15-10.19,2.15-16.41,0-7.83-1.27-14.61-3.79-20.35-2.53-5.74-6.14-10.08-10.83-13.02-4.69-2.94-10.08-4.41-16.16-4.41-4.33,0-8.33.81-12,2.44-3.67,1.63-6.83,4-9.48,7.11-2.65,3.11-4.74,7.09-6.27,11.93s-2.3,10.27-2.3,16.3c0,12.3,2.87,21.78,8.61,28.41,5.74,6.64,12.98,9.96,21.74,9.96,3.6,0,7.29-.75,11.09-2.26-2.29-1.7-5.14-3.4-8.57-5.11s-5.78-3.02-7.04-3.94c-1.27-.92-1.9-2.24-1.9-3.94,0-1.46.61-2.75,1.82-3.87,1.22-1.12,2.55-1.68,4.01-1.68,4.42,0,11.84,3.7,22.25,11.09Z"/>
  <path class="st0" d="M847.62,550.55v20.5c0,2.72-.27,4.9-.8,6.53-.54,1.63-1.52,3.1-2.95,4.41-1.44,1.31-3.27,2.58-5.51,3.79-6.47,3.5-12.69,6.05-18.67,7.66s-12.5,2.41-19.55,2.41c-8.22,0-15.71-1.27-22.47-3.79-6.76-2.53-12.52-6.2-17.29-11.02-4.77-4.81-8.43-10.65-10.98-17.51-2.55-6.86-3.83-14.52-3.83-22.98s1.24-15.93,3.72-22.83c2.48-6.91,6.13-12.77,10.94-17.58s10.67-8.5,17.58-11.05c6.91-2.55,14.74-3.83,23.49-3.83,7.2,0,13.57.96,19.11,2.88,5.54,1.92,10.04,4.34,13.5,7.26,3.45,2.92,6.05,6.01,7.81,9.26s2.63,6.15,2.63,8.68c0,2.72-1.01,5.05-3.03,6.97-2.02,1.92-4.44,2.88-7.26,2.88-1.56,0-3.05-.36-4.49-1.09-1.44-.73-2.64-1.75-3.61-3.06-2.68-4.18-4.94-7.34-6.78-9.48-1.85-2.14-4.34-3.94-7.48-5.4s-7.14-2.19-12-2.19-9.48.86-13.42,2.59-7.31,4.23-10.1,7.51c-2.8,3.28-4.94,7.31-6.42,12.07-1.48,4.77-2.22,10.04-2.22,15.83,0,12.55,2.88,22.2,8.64,28.96s13.8,10.14,24.11,10.14c5.01,0,9.71-.66,14.12-1.97,4.4-1.31,8.86-3.19,13.39-5.62v-17.36h-16.78c-4.04,0-7.09-.61-9.16-1.82-2.07-1.22-3.1-3.28-3.1-6.2,0-2.38.86-4.35,2.59-5.91,1.73-1.56,4.07-2.33,7.04-2.33h24.58c3.01,0,5.57.27,7.66.8,2.09.53,3.78,1.73,5.07,3.57,1.29,1.85,1.93,4.62,1.93,8.32Z"/>
  <path class="st0" d="M890.08,498.4v37.5l42.53-44.35c2.04-2.14,3.78-3.72,5.22-4.74,1.43-1.02,3.34-1.53,5.73-1.53,3.11,0,5.63.91,7.55,2.74,1.92,1.82,2.88,4.05,2.88,6.67,0,3.16-1.63,6.3-4.89,9.41l-26.33,24.95,30.35,43.48c2.14,3.02,3.74,5.65,4.81,7.91,1.07,2.26,1.6,4.46,1.6,6.6,0,2.38-.94,4.45-2.81,6.2-1.87,1.75-4.41,2.63-7.62,2.63-3.02,0-5.47-.65-7.37-1.93s-3.5-3-4.81-5.14c-1.31-2.14-2.48-4.09-3.5-5.84l-25.6-39.39-17.73,17v22.1c0,4.48-1.02,7.79-3.06,9.96s-4.67,3.25-7.88,3.25c-1.85,0-3.62-.49-5.33-1.46-1.7-.97-3.02-2.29-3.94-3.94-.68-1.36-1.09-2.94-1.24-4.74-.15-1.8-.22-4.4-.22-7.81v-79.51c0-4.38.96-7.66,2.88-9.85,1.92-2.19,4.53-3.28,7.84-3.28s5.9,1.08,7.91,3.25c2.02,2.16,3.03,5.46,3.03,9.88Z"/>
  <path class="st0" d="M979.73,582.65v-84.26c0-4.38,1-7.66,2.99-9.85,1.99-2.19,4.57-3.28,7.73-3.28s5.9,1.08,7.91,3.25c2.02,2.16,3.03,5.46,3.03,9.88v84.26c0,4.43-1.01,7.73-3.03,9.92-2.02,2.19-4.66,3.28-7.91,3.28s-5.68-1.11-7.7-3.32c-2.02-2.21-3.03-5.51-3.03-9.88Z"/>
  <path class="st0" d="M1095.07,504.96h-23.64v77.69c0,4.48-1,7.79-2.99,9.96-2,2.16-4.57,3.25-7.73,3.25s-5.82-1.09-7.84-3.28c-2.02-2.19-3.03-5.5-3.03-9.92v-77.69h-23.64c-3.7,0-6.44-.81-8.24-2.44-1.8-1.63-2.7-3.78-2.7-6.46s.94-4.96,2.81-6.57c1.87-1.6,4.58-2.41,8.13-2.41h68.86c3.74,0,6.53.83,8.35,2.48s2.74,3.82,2.74,6.49-.92,4.83-2.77,6.46c-1.85,1.63-4.62,2.44-8.32,2.44Z"/>
  <path class="st0" d="M1189.46,503.79h-48.8v26.26h44.94c3.31,0,5.77.74,7.4,2.22,1.63,1.48,2.44,3.44,2.44,5.87s-.8,4.41-2.41,5.95-4.09,2.3-7.44,2.3h-44.94v30.42h50.48c3.4,0,5.97.79,7.7,2.37,1.73,1.58,2.59,3.68,2.59,6.31s-.86,4.58-2.59,6.16c-1.73,1.58-4.29,2.37-7.7,2.37h-58.87c-4.72,0-8.11-1.05-10.18-3.14-2.07-2.09-3.1-5.47-3.1-10.14v-80.39c0-3.11.46-5.65,1.39-7.62.92-1.97,2.37-3.4,4.34-4.3s4.49-1.35,7.55-1.35h57.19c3.45,0,6.02.77,7.7,2.3s2.52,3.54,2.52,6.02-.84,4.56-2.52,6.09-4.24,2.3-7.7,2.3Z"/>
  <path class="st0" d="M1247.75,548.29h-7.59v34.36c0,4.52-1,7.85-2.99,9.99-2,2.14-4.6,3.21-7.81,3.21-3.45,0-6.13-1.12-8.02-3.36s-2.84-5.52-2.84-9.85v-82.29c0-4.67,1.05-8.05,3.14-10.14,2.09-2.09,5.47-3.14,10.14-3.14h35.23c4.86,0,9.02.21,12.47.62,3.45.41,6.57,1.25,9.34,2.52,3.36,1.41,6.32,3.43,8.9,6.05,2.58,2.63,4.53,5.68,5.87,9.16,1.34,3.48,2.01,7.16,2.01,11.05,0,7.98-2.25,14.35-6.75,19.11-4.5,4.77-11.32,8.15-20.46,10.14,3.84,2.04,7.51,5.06,11.02,9.05,3.5,3.99,6.63,8.23,9.37,12.73,2.75,4.5,4.89,8.56,6.42,12.18s2.3,6.12,2.3,7.48-.45,2.81-1.35,4.19c-.9,1.39-2.13,2.48-3.68,3.28-1.56.8-3.36,1.2-5.4,1.2-2.43,0-4.48-.57-6.13-1.71-1.65-1.14-3.08-2.59-4.27-4.34-1.19-1.75-2.81-4.33-4.85-7.73l-8.68-14.44c-3.11-5.3-5.9-9.34-8.35-12.11-2.46-2.77-4.95-4.67-7.48-5.69-2.53-1.02-5.72-1.53-9.56-1.53ZM1260.15,503.36h-19.99v29.4h19.4c5.2,0,9.58-.45,13.13-1.35,3.55-.9,6.26-2.43,8.13-4.6,1.87-2.16,2.81-5.14,2.81-8.94,0-2.97-.76-5.58-2.26-7.84-1.51-2.26-3.6-3.95-6.27-5.07-2.53-1.07-7.51-1.6-14.95-1.6Z"/>
  <path class="st0" d="M743.53,704.9v-51.43c0-4.38.98-7.66,2.95-9.85s4.56-3.28,7.77-3.28,6.02,1.09,7.99,3.28,2.95,5.47,2.95,9.85v52.6c0,5.98.67,10.98,2.01,14.99,1.34,4.01,3.71,7.12,7.11,9.34,3.4,2.21,8.17,3.32,14.3,3.32,8.46,0,14.44-2.25,17.95-6.75,3.5-4.5,5.25-11.32,5.25-20.46v-53.03c0-4.42.97-7.72,2.92-9.88,1.94-2.16,4.55-3.25,7.81-3.25s5.9,1.08,7.91,3.25c2.02,2.16,3.03,5.46,3.03,9.88v51.43c0,8.36-.82,15.34-2.44,20.94-1.63,5.59-4.71,10.5-9.23,14.74-3.89,3.6-8.41,6.23-13.57,7.88-5.16,1.65-11.19,2.48-18.09,2.48-8.22,0-15.3-.89-21.23-2.66-5.93-1.78-10.77-4.52-14.52-8.24-3.75-3.72-6.49-8.49-8.24-14.3-1.75-5.81-2.63-12.75-2.63-20.83Z"/>
  <path class="st0" d="M779.82,155.56l24.68,13.7c6.42,3.56,11.6,7.22,15.53,10.96,3.93,3.74,6.86,8.29,8.78,13.64,5.11,13.74,2.94,29.11-6.5,46.12-3.12,5.61-6.45,10.47-10,14.56-3.55,4.09-7.38,7.43-11.49,10.02-4.11,2.59-8.57,4.46-13.39,5.63-3.76.86-7.51,1.14-11.24.85-3.73-.29-7.46-1.11-11.19-2.46-3.73-1.35-7.74-3.21-12.04-5.6l-24.68-13.7c-3.44-1.91-5.75-3.87-6.91-5.88-1.17-2.01-1.49-4.11-.97-6.3.52-2.19,1.62-4.79,3.29-7.81l38.07-68.56c2.27-4.08,4.82-6.53,7.66-7.34,2.84-.81,6.31-.09,10.39,2.18ZM778.83,174.62l-35.23,63.46,14.35,7.97c3.15,1.75,5.66,3.03,7.54,3.85,1.88.82,3.97,1.42,6.26,1.81,2.29.38,4.48.35,6.57-.11,9.31-1.84,17.6-9.31,24.87-22.4,5.12-9.23,7.57-16.91,7.33-23.05-.24-6.14-2.05-10.97-5.43-14.49-3.39-3.52-7.97-6.89-13.75-10.1l-12.5-6.94Z"/>
  <path class="st0" d="M919.63,683.07h-42.67v27.36h35.67c3.31,0,5.77.74,7.4,2.22,1.63,1.48,2.44,3.47,2.44,5.95s-.83,4.45-2.48,5.91c-1.65,1.46-4.11,2.19-7.37,2.19h-35.67v35.23c0,4.48-1.01,7.79-3.03,9.96-2.02,2.16-4.61,3.25-7.77,3.25s-5.82-1.09-7.84-3.28c-2.02-2.19-3.03-5.5-3.03-9.92v-82.29c0-3.11.46-5.65,1.39-7.62.92-1.97,2.37-3.4,4.34-4.3,1.97-.9,4.49-1.35,7.55-1.35h51.06c3.45,0,6.02.77,7.7,2.3s2.52,3.54,2.52,6.02-.84,4.56-2.52,6.09-4.24,2.3-7.7,2.3Z"/>
  <path class="st0" d="M974.19,677.53l41.65,63.03v-63.61c0-4.13.89-7.23,2.66-9.3,1.78-2.07,4.17-3.1,7.19-3.1s5.57,1.03,7.37,3.1c1.8,2.07,2.7,5.17,2.7,9.3v84.11c0,9.39-3.89,14.08-11.67,14.08-1.95,0-3.7-.28-5.25-.84-1.56-.56-3.02-1.45-4.38-2.66-1.36-1.21-2.63-2.64-3.79-4.27-1.17-1.63-2.33-3.29-3.5-5l-40.63-62.3v62.66c0,4.09-.95,7.17-2.84,9.26s-4.33,3.14-7.29,3.14-5.52-1.06-7.37-3.17c-1.85-2.12-2.77-5.19-2.77-9.23v-82.5c0-3.5.39-6.25,1.17-8.24.92-2.19,2.46-3.98,4.6-5.36,2.14-1.39,4.45-2.08,6.93-2.08,1.94,0,3.61.32,5,.95,1.39.63,2.6,1.48,3.65,2.55,1.04,1.07,2.12,2.46,3.21,4.16,1.09,1.7,2.22,3.48,3.39,5.33Z"/>
  <path class="st0" d="M475.1,758.8l83.95-143.38-90.28,15.17c-6.33,1.06-11.33.47-15.01-1.78-3.68-2.25-5.9-5.66-6.67-10.21s.16-8.85,2.88-12.32,7.24-5.74,13.56-6.8l116.38-19.55c15.07-2.53,23.79,3.23,26.15,17.27,1.13,6.7.77,12.26-1.07,16.68-1.84,4.42-5.83,11.74-11.95,21.95l-78.59,133.44,108.28-18.19c6.42-1.08,11.43-.56,15.04,1.56,3.61,2.12,5.81,5.55,6.61,10.3.83,4.93-.1,9.11-2.78,12.52-2.68,3.42-7.23,5.66-13.65,6.74l-132.84,22.32c-9.02,1.52-16.16.63-21.39-2.65-5.24-3.28-8.43-8.32-9.57-15.11-.39-2.32-.38-4.53.04-6.61.42-2.08,1.11-4.08,2.07-6.02.97-1.93,2.34-4.41,4.13-7.44,1.79-3.03,3.35-5.66,4.7-7.89Z"/>
  <rect class="st0" x="-90.19" width="90.19" height="815.71"/>
  <rect class="st0" x="612" width="90.19" height="815.71"/>
  <rect class="st0" x="-14.39" y="371.95" width=".64" height="36.73"/>
  <path class="st0" d="M541.64,526.57v-78.45l-60.4-93.64c-5.29-8.44-9.03-15.02-11.22-19.74-2.19-4.72-3.29-8.83-3.29-12.32,0-5.74,2.22-10.68,6.66-14.85,4.44-4.16,9.92-6.24,16.45-6.24,6.86,0,12.06,1.94,15.61,5.82,3.54,3.88,8.86,11.61,15.94,23.2l46.23,75.08,46.74-75.08c2.81-4.61,5.17-8.49,7.09-11.64,1.91-3.15,4.02-6.1,6.33-8.86,2.3-2.75,4.86-4.86,7.68-6.33,2.81-1.46,6.24-2.19,10.29-2.19,6.3,0,11.56,2.05,15.78,6.16,4.22,4.11,6.33,8.86,6.33,14.26,0,4.39-1.07,8.77-3.21,13.16-2.14,4.39-5.8,10.46-10.97,18.22l-61.92,94.99v78.45c0,10.24-2.36,17.88-7.09,22.95s-10.74,7.59-18.05,7.59-13.44-2.5-18.05-7.51c-4.61-5-6.92-12.68-6.92-23.03Z"/>
</svg>