<?xml version="1.0" encoding="UTF-8"?>
<svg xmlns="http://www.w3.org/2000/svg" version="1.1" viewBox="0 0 612 792">
  <!-- Generator: Adobe Illustrator 29.1.0, SVG Export Plug-In . SVG Version: 2.1.0 Build 142)  -->
  <defs>
    <style>
      .st0 {
        fill: #f5f6cb;
      }

      .st1 {
        fill: #fff;
      }

      .st2, .st3 {
        opacity: .35;
      }

      .st2, .st4 {
        fill: #fff200;
      }
    </style>
  </defs>
  <g id="Layer_3">
    <rect class="st0" x="963.16" y="232.53" width="727.75" height="920.81"/>
  </g>
  <g id="Layer_1">
    <path class="st2" d="M87.87,220.47l-.75-31.15L-1.83,157.93l-20.35,24.37c-7.94,9.51-14.03,15.66-18.27,18.47-4.24,2.81-9.64,3.06-16.21.74-5.57-1.97-9.78-5.75-12.61-11.33-2.84-5.59-3.34-10.97-1.52-16.15,1.05-2.98,2.64-5.89,4.76-8.73,2.12-2.83,5.32-6.68,9.61-11.54L49.7,31.44c3.03-3.52,6.68-7.74,10.94-12.67,4.26-4.93,8.32-8.84,12.2-11.72,3.87-2.88,8.28-4.77,13.24-5.65,4.95-.88,10.47-.25,16.54,1.89,6.17,2.18,10.9,5.17,14.21,8.96,3.3,3.8,5.57,7.98,6.81,12.56,1.24,4.58,1.98,9.29,2.23,14.13.25,4.84.47,11.27.66,19.28l7.32,161.36c.68,12.33.16,20.93-1.56,25.8-1.79,5.07-5.55,8.98-11.27,11.72-5.72,2.73-11.57,3.05-17.54.94-3.48-1.23-6.25-2.91-8.3-5.03-2.05-2.12-3.54-4.55-4.48-7.29-.94-2.74-1.59-6.66-1.97-11.77-.38-5.11-.67-9.61-.86-13.48ZM21.56,128.75l65.37,23.08-1.11-101.94L21.56,128.75Z"/>
    <path class="st2" d="M185.74,1510.01c3.74,7.32,5.22,14.87,4.43,22.63-.79,7.77-3.97,15.16-9.55,22.17-5.58,7.02-13.35,13.08-23.32,18.17-11.95,6.11-22.96,8.89-33.03,8.34-7.17-.43-13.86-2.48-20.07-6.15-6.21-3.66-10.63-8.06-13.25-13.18-1.52-2.97-1.79-6.05-.81-9.22.98-3.17,3.07-5.58,6.26-7.21,2.59-1.32,5.2-1.62,7.83-.88,2.63.74,5.41,2.41,8.34,5.01,3.51,3.07,6.82,5.44,9.94,7.11,3.11,1.67,6.72,2.52,10.83,2.54,4.11.02,8.8-1.32,14.09-4.02,7.27-3.72,12.31-8.43,15.12-14.14,2.81-5.71,2.92-11.09.33-16.16-2.05-4.02-4.95-6.65-8.68-7.91-3.73-1.25-7.87-1.55-12.43-.89-4.56.66-10.47,1.91-17.72,3.75-9.74,2.41-18.24,3.75-25.5,4.02-7.26.27-13.81-1.07-19.66-4.02-5.85-2.95-10.56-7.92-14.13-14.91s-4.61-13.51-3.63-20.54c.99-7.03,4.21-13.7,9.67-20,5.46-6.3,12.84-11.83,22.15-16.58,7.43-3.8,14.33-6.16,20.7-7.09,6.37-.93,12.12-.78,17.26.45,5.14,1.23,9.4,3.1,12.76,5.61,3.37,2.52,5.87,5.37,7.5,8.56,1.49,2.92,1.8,6.08.93,9.47-.87,3.4-2.85,5.88-5.93,7.46-2.81,1.44-5.3,1.82-7.48,1.17-2.18-.66-4.94-2.15-8.27-4.47-4.54-3.44-9-5.66-13.4-6.64-4.39-.98-10,.27-16.83,3.76-6.33,3.24-10.73,7.24-13.19,12-2.46,4.77-2.69,9.1-.69,13.01,1.24,2.42,2.97,4.18,5.19,5.26,2.22,1.09,4.81,1.67,7.77,1.76,2.96.08,5.81-.12,8.54-.62,2.73-.49,7.18-1.45,13.33-2.86,7.64-1.89,14.73-3.29,21.24-4.19,6.52-.9,12.42-.97,17.71-.2,5.29.77,10.1,2.7,14.43,5.8,4.33,3.1,8.05,7.71,11.18,13.82Z"/>
    <path class="st2" d="M386.63,1278.99l27.96,37.08.2-46.75c0-2.45.05-4.17.13-5.16.08-.99.43-1.97,1.05-2.94.62-.98,1.67-1.71,3.14-2.2,1.08-.36,2.16-.42,3.26-.19,1.1.23,2.06.71,2.88,1.43.82.72,1.38,1.53,1.68,2.44.21.62.34,1.32.41,2.1s.09,1.56.07,2.34c-.02.78-.04,1.58-.05,2.4l-1.58,45.7c-.02,1.74-.07,3.39-.14,4.98-.07,1.58-.29,3.02-.64,4.32-.36,1.3-1.01,2.48-1.96,3.55-.95,1.07-2.27,1.89-3.97,2.45s-3.25.71-4.64.43c-1.4-.28-2.64-.84-3.72-1.69-1.08-.85-2.13-1.88-3.12-3.09-1-1.21-2.03-2.5-3.08-3.88l-28.22-35.44c-.5-.65-1-1.29-1.5-1.91-.5-.62-.98-1.31-1.44-2.07-.46-.76-.78-1.42-.97-1.99-.48-1.44-.34-2.95.43-4.53.77-1.57,2.03-2.65,3.78-3.24,2.15-.71,3.89-.56,5.22.46s2.94,2.82,4.83,5.4Z"/>
    <path class="st2" d="M554.33,1164.18l7.95,29.59,45.16-12.13-7.95-29.59c-1.14-4.23-1.04-7.65.3-10.28s3.55-4.35,6.65-5.19,5.98-.48,8.49,1.08c2.51,1.57,4.34,4.49,5.49,8.76l21.86,81.37c1.15,4.27,1.02,7.73-.39,10.38s-3.66,4.38-6.76,5.21-5.95.45-8.4-1.18c-2.45-1.63-4.25-4.56-5.38-8.79l-9.33-34.73-45.16,12.13,9.33,34.73c1.15,4.27,1.02,7.73-.39,10.38-1.4,2.64-3.66,4.38-6.76,5.21s-5.95.45-8.4-1.18c-2.45-1.63-4.25-4.56-5.38-8.79l-21.86-81.37c-1.14-4.23-1.06-7.65.23-10.26,1.29-2.61,3.53-4.35,6.72-5.2s5.98-.48,8.49,1.08c2.51,1.57,4.34,4.49,5.49,8.76Z"/>
    <path class="st2" d="M327.38,1372.83l-19.65-2.76-4.22,29.98c-.6,4.29-2.07,7.4-4.41,9.33s-5.04,2.68-8.12,2.25-5.67-1.92-7.34-4.38c-1.67-2.47-2.2-5.82-1.61-10.06l11.48-81.63c.66-4.72,2.22-7.94,4.67-9.66,2.45-1.72,6.04-2.25,10.76-1.58l27.52,3.87c8.14,1.14,14.31,2.65,18.52,4.52,4.16,1.81,7.63,4.34,10.39,7.58,2.76,3.24,4.68,6.99,5.74,11.27,1.07,4.28,1.25,8.94.54,14-1.52,10.79-5.99,18.5-13.42,23.12s-17.72,6.02-30.86,4.17ZM329,1323.56l-14.45-2.03-4.55,32.36,14.45,2.03c5.06.71,9.36.78,12.9.19,3.54-.58,6.38-1.95,8.5-4.11,2.12-2.16,3.46-5.19,4-9.09.66-4.67-.18-8.67-2.51-11.99-2.64-3.56-8.76-6.02-18.34-7.37Z"/>
    <path class="st2" d="M141.47,763.75c-1.92,6.71-5.64,13.5-11.18,20.36-5.54,6.87-12.93,13.05-22.17,18.54-9.24,5.5-20.05,9.02-32.41,10.57-12.36,1.55-25.88.23-40.54-3.96-11.12-3.18-20.93-7.12-29.43-11.83-8.5-4.71-15.83-10.35-21.98-16.93-6.16-6.58-11.31-14.4-15.45-23.46-3.67-8.2-6.3-16.96-7.89-26.28-1.59-9.32-2.04-18.9-1.35-28.76.69-9.86,2.53-20.01,5.51-30.46,4.85-16.96,11.65-31.45,20.42-43.46,8.77-12.01,19.12-21.46,31.04-28.37,11.92-6.91,24.78-11.09,38.57-12.54,13.79-1.45,27.68-.18,41.67,3.82,17.06,4.87,31.28,12.62,42.65,23.23,11.38,10.61,19.18,21.94,23.41,33.98,4.23,12.04,5.07,22.52,2.53,31.43-1.4,4.89-4.35,8.71-8.87,11.46-4.52,2.75-9.22,3.43-14.11,2.03-5.46-1.56-9.19-4.03-11.18-7.39-1.99-3.37-3.76-8.69-5.31-15.98-2.58-12.03-6.88-21.71-12.93-29.04-6.05-7.33-14.58-12.56-25.6-15.71-17.54-5.01-33.41-2.34-47.61,8.01-14.21,10.35-24.81,27.79-31.82,52.33-4.68,16.39-6.28,30.68-4.78,42.87,1.49,12.19,5.69,22.18,12.59,29.95,6.9,7.78,16,13.28,27.31,16.51,12.27,3.5,23.51,3.43,33.73-.24,10.22-3.66,19.17-10.77,26.85-21.33,3.41-5.04,6.95-8.92,10.64-11.65,3.68-2.73,8.49-3.25,14.44-1.55,5.08,1.45,8.93,4.47,11.56,9.06,2.63,4.59,3.19,9.52,1.68,14.79Z"/>
    <path class="st2" d="M588.93,1326.89l23.93,50.41c2.08,4.38,3.66,8.18,4.74,11.42,1.08,3.24,1.71,6.75,1.9,10.52.32,6.33-1.33,12.17-4.96,17.51-3.63,5.34-9.06,9.73-16.28,13.15-6.52,3.09-12.45,4.65-17.78,4.66-5.33.01-10.42-1.65-15.27-4.98-2.56-1.79-5.04-4.07-7.43-6.85-2.39-2.78-4.27-5.61-5.64-8.5-1.45-3.06-1.71-5.81-.77-8.24.94-2.43,2.74-4.28,5.41-5.54s4.88-1.41,6.9-.54c2.02.87,4.13,2.71,6.32,5.52,2.34,3.02,4.36,5.36,6.06,7.01,1.7,1.66,3.77,2.8,6.2,3.41,2.44.61,5.27.15,8.51-1.39,8.62-4.09,9.93-12.46,3.93-25.11l-25.27-53.23c-1.87-3.94-2.41-7.3-1.61-10.09.79-2.79,2.68-4.89,5.65-6.3s5.88-1.59,8.59-.46,4.99,3.66,6.86,7.6Z"/>
    <path class="st2" d="M112.08,1146.36l11.71,50.41,28.44-6.6c2.27-.53,4.14-.38,5.6.44,1.47.82,2.4,2.07,2.78,3.74s.12,3.22-.84,4.55c-.95,1.33-2.58,2.27-4.88,2.8l-33.88,7.87c-3.06.71-5.41.54-7.06-.5-1.65-1.04-2.83-3.08-3.53-6.1l-12.39-53.34c-.66-2.83-.51-5.11.43-6.82s2.46-2.81,4.54-3.29,3.98-.19,5.61.91c1.63,1.1,2.78,3.08,3.45,5.95Z"/>
    <path class="st2" d="M74.55,527.69H8.07c-9.6,0-16.45-2.15-20.55-6.45-4.11-4.3-6.16-11.15-6.16-20.55v-163.53c0-9.59,2.1-16.49,6.31-20.7,4.2-4.2,11-6.31,20.4-6.31h70.49c10.39,0,19.39.64,27.01,1.93,7.62,1.29,14.44,3.76,20.48,7.42,5.14,3.07,9.69,6.95,13.65,11.65,3.95,4.7,6.97,9.89,9.05,15.58,2.08,5.69,3.12,11.7,3.12,18.03,0,21.77-10.88,37.69-32.65,47.78,28.59,9.1,42.88,26.81,42.88,53.12,0,12.17-3.12,23.13-9.35,32.87-6.23,9.75-14.64,16.94-25.23,21.59-6.63,2.77-14.25,4.72-22.85,5.86-8.61,1.14-18.65,1.71-30.12,1.71ZM25.43,343.25v56.24h40.36c10.98,0,19.46-1.04,25.45-3.12,5.99-2.08,10.56-6.03,13.73-11.87,2.47-4.15,3.71-8.8,3.71-13.95,0-10.98-3.91-18.28-11.72-21.89-7.82-3.61-19.74-5.42-35.76-5.42H25.43ZM71.28,431.09H25.43v63.51h47.34c29.77,0,44.67-10.73,44.67-32.2,0-10.98-3.86-18.94-11.57-23.89-7.72-4.95-19.24-7.42-34.57-7.42Z"/>
    <path class="st2" d="M542.43,1602.48c11.09,0,20.61,2.25,28.56,6.75,7.95,4.5,13.97,10.89,18.05,19.19,4.09,8.29,6.13,18.03,6.13,29.22,0,8.27-1.12,15.78-3.36,22.54-2.24,6.76-5.59,12.62-10.07,17.58-4.48,4.96-9.97,8.75-16.49,11.38-6.52,2.63-13.98,3.94-22.4,3.94s-15.86-1.35-22.47-4.05c-6.61-2.7-12.13-6.5-16.56-11.42-4.43-4.91-7.77-10.82-10.03-17.73-2.26-6.91-3.39-14.37-3.39-22.4s1.18-15.76,3.54-22.61c2.36-6.86,5.77-12.69,10.25-17.51,4.47-4.81,9.92-8.5,16.34-11.05s13.71-3.83,21.88-3.83ZM573.22,1657.49c0-7.83-1.27-14.61-3.79-20.35-2.53-5.74-6.14-10.08-10.83-13.02-4.69-2.94-10.08-4.41-16.16-4.41-4.33,0-8.33.82-12,2.44-3.67,1.63-6.83,4-9.48,7.11-2.65,3.11-4.74,7.09-6.27,11.93-1.53,4.84-2.3,10.27-2.3,16.3s.77,11.58,2.3,16.49c1.53,4.91,3.69,8.99,6.49,12.22,2.8,3.23,6.01,5.65,9.63,7.26,3.62,1.6,7.6,2.41,11.93,2.41,5.54,0,10.64-1.39,15.28-4.16,4.64-2.77,8.34-7.05,11.09-12.84,2.75-5.79,4.12-12.91,4.12-21.37Z"/>
    <path class="st2" d="M439.11,185.46l71.71-55.04-20.25-76.4c-1.85-7.37-3.02-13.57-3.51-18.59-.49-5.02-.07-9.55,1.25-13.6,1.35-4.14,4.42-7.26,9.2-9.36,4.78-2.1,9.83-2.27,15.16-.53,6.12,2,10.29,5.36,12.52,10.07,2.23,4.72,4.76,12.94,7.58,24.67l15.35,63.33,52-41.33c4.31-3.51,8-6.51,11.05-9,3.05-2.5,5.86-4.47,8.41-5.93,2.55-1.46,5.16-2.33,7.81-2.61,2.65-.28,5.52.08,8.57,1.08,5.53,1.81,9.5,4.93,11.92,9.38,2.42,4.45,2.89,8.95,1.41,13.48-2.16,6.61-8.89,14.35-20.2,23.21l-63.66,49.97,22.87,85.94c2.11,7.57,3.44,13.71,3.98,18.42.53,4.71.21,8.89-.98,12.54-1.13,3.45-3,6.34-5.61,8.65-2.62,2.31-5.72,3.81-9.33,4.49-3.61.68-7.33.39-11.18-.87-4.14-1.35-7.36-3.36-9.66-6.02-2.3-2.66-3.92-5.56-4.85-8.71-.94-3.14-2.62-9.21-5.03-18.19l-18.56-72.57-60.77,48.62c-4.77,3.9-8.14,6.62-10.12,8.16-1.98,1.54-4.21,2.94-6.7,4.2-2.49,1.26-5.19,2.02-8.11,2.26-2.92.25-6.11-.19-9.56-1.32-5.33-1.74-9.21-4.81-11.65-9.21-2.44-4.4-2.64-9.71-.61-15.93,2.39-7.3,8.9-15.05,19.56-23.26Z"/>
    <path class="st2" d="M351.52,1529.72c3.44,1.65,7.17,3.19,11.17,4.63,4,1.44,6.69,2.66,8.07,3.65,1.38,1,2.23,2.58,2.56,4.74.23,1.54-.25,3.18-1.43,4.94-1.19,1.75-2.79,2.78-4.81,3.08-1.64.25-3.7.01-6.19-.69-2.49-.71-5.47-1.83-8.92-3.38-3.45-1.55-7.26-3.38-11.42-5.51-6.44,4.61-14.73,7.68-24.88,9.2-8.22,1.24-15.79,1.04-22.7-.6-6.91-1.64-12.95-4.59-18.12-8.85-5.17-4.26-9.38-9.62-12.64-16.06-3.26-6.44-5.49-13.66-6.69-21.64-1.22-8.13-1.18-15.76.13-22.89,1.31-7.13,3.82-13.41,7.53-18.84,3.71-5.43,8.54-9.88,14.51-13.36,5.97-3.48,12.99-5.83,21.07-7.05,10.96-1.65,20.71-.84,29.25,2.42s15.44,8.69,20.71,16.28,8.74,16.92,10.41,27.98c2.53,16.78-.01,30.76-7.63,41.94ZM332.96,1520.56c2.47-3.86,4.06-8.23,4.78-13.11.72-4.88.61-10.4-.32-16.55-1.17-7.74-3.43-14.26-6.78-19.56-3.36-5.3-7.57-9.05-12.65-11.26-5.08-2.21-10.62-2.86-16.64-1.96-4.28.64-8.11,2.05-11.5,4.2-3.39,2.16-6.16,4.97-8.32,8.45-2.16,3.47-3.63,7.72-4.43,12.73s-.74,10.5.16,16.46c1.83,12.17,6.08,21.11,12.74,26.81,6.66,5.71,14.32,7.91,22.98,6.61,3.56-.54,7.1-1.83,10.63-3.89-2.51-1.34-5.59-2.6-9.24-3.77-3.64-1.17-6.16-2.12-7.55-2.85-1.39-.73-2.21-1.93-2.46-3.61-.22-1.44.19-2.81,1.23-4.09,1.04-1.29,2.27-2.04,3.72-2.26,4.38-.66,12.26,1.89,23.65,7.65Z"/>
    <path class="st2" d="M469.44,1703.48l8.64,18.59c1.15,2.47,1.82,4.56,2.02,6.26.2,1.7-.07,3.45-.82,5.25-.75,1.8-1.88,3.72-3.4,5.76-4.39,5.9-8.96,10.84-13.71,14.82s-10.32,7.45-16.71,10.42c-7.45,3.46-14.78,5.47-21.97,6.03-7.2.56-13.97-.34-20.32-2.7-6.35-2.36-12.13-6.11-17.33-11.25-5.21-5.14-9.59-11.55-13.16-19.22s-5.59-14.97-6.25-22.27c-.66-7.31.18-14.16,2.51-20.55s6.1-12.21,11.28-17.43c5.19-5.23,11.75-9.68,19.69-13.37,6.53-3.03,12.71-4.85,18.55-5.44s10.94-.3,15.3.89c4.36,1.19,8.02,2.89,10.98,5.11,2.96,2.22,4.97,4.47,6.04,6.77,1.15,2.47,1.21,5,.19,7.59-1.02,2.59-2.81,4.48-5.37,5.67-1.41.66-2.92.96-4.53.9-1.61-.06-3.13-.48-4.57-1.26-4.19-2.67-7.57-4.58-10.15-5.74-2.58-1.16-5.6-1.74-9.06-1.74s-7.39,1.02-11.8,3.07-8.24,4.78-11.08,8.01c-2.84,3.23-4.84,6.92-6,11.07-1.15,4.16-1.4,8.71-.73,13.65.66,4.95,2.21,10.04,4.65,15.29,5.29,11.38,11.97,18.92,20.04,22.62,8.08,3.7,16.79,3.38,26.14-.97,4.54-2.11,8.53-4.69,11.97-7.74,3.44-3.05,6.7-6.62,9.77-10.74l-7.32-15.74-15.22,7.07c-3.66,1.7-6.68,2.44-9.07,2.2-2.39-.23-4.2-1.67-5.42-4.32-1-2.16-1.05-4.31-.14-6.45.91-2.14,2.71-3.83,5.4-5.08l22.29-10.36c2.73-1.27,5.16-2.1,7.28-2.5,2.12-.4,4.16-.03,6.1,1.1,1.95,1.13,3.7,3.37,5.26,6.73Z"/>
    <path class="st2" d="M462.87,1468.75l-12.81,35.24,55.12-27.16c2.65-1.31,4.82-2.2,6.52-2.67,1.7-.47,3.67-.3,5.91.52,2.92,1.06,4.98,2.78,6.16,5.15,1.18,2.37,1.32,4.79.43,7.26-1.08,2.97-3.68,5.36-7.81,7.17l-33.27,14.45,13.67,51.23c.98,3.56,1.59,6.59,1.82,9.08.23,2.49-.02,4.74-.75,6.75-.81,2.24-2.4,3.86-4.76,4.87-2.36,1.01-5.05.96-8.06-.14-2.83-1.03-4.92-2.48-6.26-4.33s-2.27-4.02-2.77-6.48c-.5-2.46-.94-4.69-1.3-6.68l-10.61-45.77-22.47,9.92-7.55,20.77c-1.53,4.21-3.62,6.98-6.28,8.31s-5.5,1.46-8.51.36c-1.74-.63-3.24-1.7-4.51-3.19-1.27-1.5-2.05-3.18-2.36-5.05-.18-1.51-.02-3.14.45-4.88.48-1.74,1.3-4.21,2.46-7.41l27.16-74.73c1.5-4.11,3.52-6.87,6.07-8.27,2.55-1.4,5.38-1.54,8.49-.41,3.06,1.11,5.17,3.03,6.33,5.75,1.16,2.72.98,6.16-.53,10.32Z"/>
    <path class="st2" d="M235.86,1360.15l16.66-61.42c.87-3.19,2.24-5.39,4.13-6.59,1.89-1.2,3.98-1.49,6.29-.86s4.08,1.95,5.13,3.93c1.04,1.98,1.13,4.58.25,7.8l-16.66,61.42c-.88,3.23-2.27,5.44-4.17,6.63-1.9,1.2-4.04,1.47-6.42.83s-3.92-1.93-4.95-3.94c-1.03-2.01-1.12-4.61-.25-7.8Z"/>
    <path class="st2" d="M397.37,1223.23l-14.93-8.41-27.65,49.07c-1.59,2.83-3.4,4.57-5.43,5.22-2.03.66-4.04.42-6.04-.7s-3.29-2.76-3.78-4.86c-.5-2.1.04-4.55,1.62-7.34l27.65-49.07-14.93-8.41c-2.33-1.32-3.78-2.81-4.34-4.48-.56-1.67-.36-3.35.59-5.04s2.36-2.8,4.11-3.15c1.75-.35,3.75.11,5.99,1.37l43.49,24.51c2.37,1.33,3.83,2.85,4.39,4.54.56,1.69.37,3.38-.58,5.07s-2.3,2.72-4.05,3.09c-1.75.37-3.79-.1-6.12-1.42Z"/>
    <path class="st2" d="M520.39,1330.43l-47.82,9.75,5.25,25.73,44.03-8.97c3.24-.66,5.81-.43,7.7.7,1.89,1.13,3.08,2.88,3.57,5.27s.1,4.48-1.17,6.31-3.54,3.07-6.83,3.74l-44.03,8.97,6.08,29.81,49.46-10.08c3.33-.68,6.01-.42,8.01.79,2.01,1.2,3.27,3.09,3.8,5.67s.07,4.67-1.31,6.56c-1.38,1.89-3.73,3.18-7.07,3.86l-57.68,11.76c-4.62.94-8.15.6-10.6-1.04-2.44-1.63-4.13-4.74-5.06-9.32l-16.06-78.77c-.62-3.05-.68-5.63-.16-7.75.51-2.11,1.64-3.81,3.39-5.08s4.13-2.22,7.13-2.83l56.04-11.42c3.38-.69,6.05-.45,8,.71,1.95,1.17,3.17,2.96,3.67,5.39s.09,4.63-1.25,6.47-3.7,3.1-7.08,3.79Z"/>
    <path class="st2" d="M164.43,1281.36l-6.64-.57-2.6,30.05c-.34,3.96-1.47,6.79-3.37,8.52-1.91,1.72-4.26,2.46-7.07,2.22-3.02-.26-5.28-1.44-6.77-3.54-1.49-2.1-2.07-5.04-1.74-8.83l6.22-71.97c.35-4.08,1.52-6.96,3.51-8.63,1.99-1.67,5.02-2.33,9.11-1.98l30.82,2.66c4.25.37,7.87.86,10.86,1.48,2.99.62,5.65,1.59,7.98,2.91,2.83,1.49,5.27,3.48,7.33,5.97,2.06,2.49,3.54,5.31,4.44,8.45.91,3.14,1.21,6.42.92,9.82-.6,6.98-3.05,12.38-7.35,16.21-4.29,3.83-10.52,6.27-18.66,7.32,3.21,2.08,6.19,4.99,8.95,8.74,2.76,3.75,5.17,7.7,7.24,11.84,2.06,4.14,3.63,7.86,4.69,11.14s1.55,5.52,1.45,6.71-.61,2.42-1.5,3.57c-.89,1.14-2.05,2.01-3.47,2.59-1.42.58-3.03.8-4.81.65-2.13-.18-3.87-.84-5.23-1.96-1.36-1.12-2.49-2.5-3.4-4.12-.91-1.62-2.13-4-3.66-7.13l-6.5-13.29c-2.32-4.87-4.45-8.61-6.39-11.22-1.94-2.61-3.98-4.46-6.11-5.54-2.13-1.08-4.88-1.77-8.24-2.06ZM178.67,1243l-17.48-1.51-2.22,25.71,16.97,1.47c4.55.39,8.41.33,11.59-.19,3.17-.52,5.66-1.65,7.46-3.41,1.8-1.75,2.84-4.29,3.13-7.6.22-2.59-.24-4.94-1.39-7.03-1.15-2.09-2.85-3.73-5.1-4.91-2.13-1.13-6.45-1.97-12.96-2.53Z"/>
    <path class="st2" d="M260.32,1651.43l-10.15-54.41c-.86-4.63-.47-8.3,1.18-11s4.18-4.37,7.57-5.01,6.58-.03,9.1,1.9,4.2,5.2,5.07,9.84l10.38,55.64c1.18,6.33,2.87,11.48,5.08,15.46,2.21,3.98,5.33,6.81,9.37,8.47,4.04,1.67,9.3,1.9,15.78.69,8.95-1.67,14.84-5.23,17.65-10.68,2.82-5.45,3.32-13.01,1.52-22.68l-10.46-56.1c-.87-4.68-.49-8.36,1.14-11.03,1.63-2.67,4.17-4.33,7.62-4.97s6.45-.02,9.01,1.87c2.56,1.89,4.28,5.18,5.15,9.86l10.15,54.41c1.65,8.85,2.17,16.39,1.55,22.63-.62,6.24-2.9,12.04-6.85,17.41-3.41,4.58-7.67,8.25-12.8,11.01-5.13,2.77-11.34,4.83-18.65,6.19-8.7,1.62-16.36,2.08-22.98,1.37-6.63-.71-12.29-2.66-16.98-5.86-4.7-3.2-8.54-7.7-11.54-13.5-3-5.8-5.29-12.97-6.89-21.51Z"/>
    <path class="st2" d="M-81.24,1074.83l48.96-12.05c12.73-3.13,23.95-4.64,33.64-4.52,9.69.12,19.04,2.51,28.07,7.18,23.38,11.78,39.23,34.54,47.53,68.27,2.74,11.13,4.27,21.54,4.6,31.21.32,9.67-.63,18.69-2.86,27.07-2.23,8.38-5.79,16.25-10.69,23.63-3.88,5.7-8.43,10.62-13.67,14.77-5.24,4.15-11.12,7.61-17.64,10.38-6.52,2.77-14.04,5.2-22.56,7.3l-48.96,12.05c-6.83,1.68-12.23,1.92-16.2.7-3.97-1.21-6.94-3.57-8.92-7.06-1.98-3.49-3.7-8.23-5.18-14.22l-33.48-136c-1.99-8.1-1.62-14.4,1.11-18.92,2.73-4.52,8.15-7.78,16.25-9.77ZM-59.37,1100.98l30.99,125.88,28.47-7.01c6.24-1.54,11.09-2.91,14.55-4.12,3.46-1.21,6.92-2.96,10.38-5.24,3.46-2.28,6.29-4.99,8.47-8.12,9.95-13.72,11.73-33.57,5.33-59.55-4.5-18.3-10.64-31.33-18.41-39.08-7.77-7.75-16-11.87-24.71-12.37-8.71-.49-18.8.67-30.27,3.49l-24.8,6.1Z"/>
    <path class="st2" d="M339.31,1119.15l-41.09-11.51-7.38,26.34,34.35,9.62c3.18.89,5.36,2.27,6.53,4.14,1.17,1.87,1.42,4,.75,6.38s-2,4.06-3.98,5.02c-1.99.96-4.55,1-7.69.12l-34.35-9.62-9.51,33.93c-1.21,4.31-3.08,7.23-5.6,8.77-2.53,1.54-5.31,1.88-8.36,1.03s-5.31-2.63-6.67-5.28c-1.35-2.65-1.43-6.11-.24-10.37l22.2-79.23c.84-3,1.97-5.32,3.39-6.97,1.42-1.65,3.2-2.64,5.34-2.97,2.14-.33,4.68-.09,7.63.74l49.17,13.78c3.32.93,5.59,2.36,6.79,4.29s1.47,4.09.8,6.47-2.04,4.16-4.07,5.19-4.71,1.07-8.03.14Z"/>
    <path class="st2" d="M476.98,759.7l82.17-140.33-88.36,14.85c-6.19,1.04-11.09.46-14.69-1.75-3.6-2.2-5.77-5.54-6.52-10-.78-4.64.16-8.66,2.82-12.06s7.08-5.61,13.28-6.65l113.9-19.14c14.75-2.48,23.28,3.16,25.59,16.91,1.1,6.56.75,12-1.05,16.33-1.8,4.33-5.7,11.49-11.7,21.48l-76.92,130.6,105.98-17.81c6.28-1.06,11.19-.55,14.72,1.53,3.53,2.08,5.69,5.43,6.47,10.08s-.1,8.91-2.72,12.25c-2.62,3.34-7.07,5.54-13.36,6.6l-130.02,21.84c-8.83,1.48-15.81.62-20.94-2.59-5.13-3.21-8.25-8.14-9.37-14.79-.38-2.27-.37-4.43.04-6.47.41-2.03,1.08-3.99,2.03-5.89.95-1.89,2.29-4.32,4.04-7.28,1.75-2.96,3.28-5.54,4.6-7.72Z"/>
    <rect class="st2" x="-14.39" y="371.95" width=".64" height="36.73"/>
    <path class="st2" d="M539.19,517.07v-72.07s-55.49-86.02-55.49-86.02c-4.86-7.75-8.29-13.79-10.31-18.13-2.01-4.34-3.02-8.11-3.02-11.31,0-5.27,2.04-9.82,6.12-13.64,4.08-3.82,9.12-5.73,15.11-5.73,6.3,0,11.08,1.78,14.34,5.35,3.25,3.56,8.14,10.67,14.65,21.31l42.47,68.97,42.93-68.97c2.58-4.24,4.75-7.8,6.51-10.69,1.76-2.89,3.69-5.6,5.81-8.14,2.12-2.53,4.47-4.47,7.05-5.81,2.58-1.34,5.73-2.01,9.45-2.01,5.79,0,10.62,1.89,14.49,5.66,3.87,3.77,5.81,8.14,5.81,13.1,0,4.03-.98,8.06-2.94,12.09-1.96,4.03-5.32,9.61-10.07,16.74l-56.88,87.26v72.07c0,9.4-2.17,16.43-6.51,21.08-4.34,4.65-9.87,6.97-16.58,6.97-6.82,0-12.35-2.3-16.58-6.9-4.24-4.6-6.35-11.65-6.35-21.16Z"/>
    <g class="st3">
      <rect class="st4" x="781.35" y="750.01" width="150.28" height="150.28" transform="translate(-332.61 847.31) rotate(-45)"/>
      <rect class="st4" x="781.35" y="900.83" width="150.28" height="150.28" transform="translate(-439.25 891.49) rotate(-45)"/>
    </g>
  </g>
  <g id="Layer_2">
    <rect class="st1" x="-90.19" y="-5.32" width="90.19" height="815.71"/>
    <rect class="st1" x="612" y="-5.32" width="90.19" height="815.71"/>
    <rect class="st1" x="260.9" y="-441.29" width="90.19" height="792.38" transform="translate(260.9 -351.1) rotate(90)"/>
    <rect class="st1" x="258.23" y="438.23" width="90.19" height="797.73" transform="translate(1140.42 533.77) rotate(90)"/>
  </g>
</svg>