<?xml version="1.0" encoding="utf-8"?>
<!-- Generator: Adobe Illustrator 18.1.1, SVG Export Plug-In . SVG Version: 6.00 Build 0)  -->
<svg version="1.1" id="Layer_1" xmlns="http://www.w3.org/2000/svg" xmlns:xlink="http://www.w3.org/1999/xlink" x="0px" y="0px"
	 viewBox="0 0 1049.6 341" enable-background="new 0 0 1049.6 341" xml:space="preserve" width="1049.6" height="341">
<g>
	<defs>
		<rect id="SVGID_1_" width="1049.6" height="341"/>
	</defs>
	<clipPath id="SVGID_2_">
		<use xlink:href="#SVGID_1_"  overflow="visible"/>
	</clipPath>
	<g clip-path="url(#SVGID_2_)">
		<defs>
			<rect id="SVGID_3_" width="1049.6" height="341"/>
		</defs>
		<clipPath id="SVGID_4_">
			<use xlink:href="#SVGID_3_"  overflow="visible"/>
		</clipPath>
		<g opacity="0.2" clip-path="url(#SVGID_4_)">
			<g>
				<defs>
					<rect id="SVGID_5_" x="-9" y="-7" width="359" height="349"/>
				</defs>
				<clipPath id="SVGID_6_">
					<use xlink:href="#SVGID_5_"  overflow="visible"/>
				</clipPath>
				<path clip-path="url(#SVGID_6_)" fill="#FFBA05" d="M170.5,341c94.2,0,170.5-76.3,170.5-170.5C341,76.3,264.7,0,170.5,0
					S0,76.3,0,170.5C0,264.7,76.3,341,170.5,341"/>
			</g>
		</g>
		<path clip-path="url(#SVGID_4_)" fill="#FFFFFF" d="M168.5,319.6c81.9,0,148.3-66.4,148.3-148.3S250.4,23.1,168.5,23.1
			S20.3,89.5,20.3,171.4S86.7,319.6,168.5,319.6"/>
		<g opacity="0.2" clip-path="url(#SVGID_4_)">
			<g>
				<defs>
					<rect id="SVGID_7_" x="347.3" y="-7" width="359" height="349"/>
				</defs>
				<clipPath id="SVGID_8_">
					<use xlink:href="#SVGID_7_"  overflow="visible"/>
				</clipPath>
				<path clip-path="url(#SVGID_8_)" fill="#89C543" d="M526.8,341c94.2,0,170.5-76.3,170.5-170.5C697.3,76.3,621,0,526.8,0
					S356.3,76.3,356.3,170.5C356.3,264.7,432.6,341,526.8,341"/>
			</g>
		</g>
		<path clip-path="url(#SVGID_4_)" fill="#FFFFFF" d="M524.8,319.6c81.9,0,148.3-66.4,148.3-148.3S606.7,23.1,524.8,23.1
			S376.6,89.5,376.6,171.4S442.9,319.6,524.8,319.6"/>
		<g opacity="0.2" clip-path="url(#SVGID_4_)">
			<g>
				<defs>
					<rect id="SVGID_9_" x="699.6" y="-7" width="359" height="349"/>
				</defs>
				<clipPath id="SVGID_10_">
					<use xlink:href="#SVGID_9_"  overflow="visible"/>
				</clipPath>
				<path clip-path="url(#SVGID_10_)" fill="#C9579F" d="M879.1,341c94.2,0,170.5-76.3,170.5-170.5C1049.6,76.3,973.2,0,879.1,0
					S708.6,76.3,708.6,170.5C708.6,264.7,784.9,341,879.1,341"/>
			</g>
		</g>
		<path clip-path="url(#SVGID_4_)" fill="#FFFFFF" d="M877.1,319.6c81.9,0,148.3-66.4,148.3-148.3S959,23.1,877.1,23.1
			S728.8,89.5,728.8,171.4S795.2,319.6,877.1,319.6"/>
	</g>
	<g clip-path="url(#SVGID_2_)">
	</g>
	<g clip-path="url(#SVGID_2_)">
	</g>
	<g clip-path="url(#SVGID_2_)">
	</g>
	<g clip-path="url(#SVGID_2_)">
	</g>
	<g clip-path="url(#SVGID_2_)">
	</g>
	<g clip-path="url(#SVGID_2_)">
	</g>
	<g clip-path="url(#SVGID_2_)">
	</g>
	<g clip-path="url(#SVGID_2_)">
	</g>
	<g clip-path="url(#SVGID_2_)">
	</g>
	<g clip-path="url(#SVGID_2_)">
	</g>
	<g clip-path="url(#SVGID_2_)">
	</g>
	<g clip-path="url(#SVGID_2_)">
	</g>
	<g clip-path="url(#SVGID_2_)">
	</g>
	<g clip-path="url(#SVGID_2_)">
	</g>
	<g clip-path="url(#SVGID_2_)">
	</g>
	<g clip-path="url(#SVGID_2_)">
		<defs>
			<rect id="SVGID_11_" width="1049.6" height="341"/>
		</defs>
		<clipPath id="SVGID_12_">
			<use xlink:href="#SVGID_11_"  overflow="visible"/>
		</clipPath>
		<path clip-path="url(#SVGID_12_)" fill="#C9579F" d="M740.1,91.8c19.4,0,35.1-15.7,35.1-35.1c0-19.4-15.7-35.1-35.1-35.1
			c-19.4,0-35.1,15.7-35.1,35.1C705.1,76.1,720.7,91.8,740.1,91.8"/>
	</g>
	<g clip-path="url(#SVGID_2_)">
		<path fill="#FFFFFF" d="M734.3,62.3c0.2,1.9,0.4,3.4,1.9,4.8c0.7,0.7,1.3,1,1.6,1.1c0.4,0.2,1.2,0.4,2.3,0.4c0.3,0,1.3,0,2.2-0.4
			c2.1-0.8,3.2-2.9,3.2-5.2c0-1-0.3-1.9-0.4-2.2c-0.5-1.3-1.8-3.2-5-3.2c-0.8,0-1.3,0.1-2,0.2l0.1-8c0.1,0,1.3,0.3,2.1,0.3
			c2.4,0,3.7-1.7,3.7-4.1c0-2.6-1.6-4.1-4.1-4.1c-2.6,0-3.7,1.7-4,2.6c-0.2,0.8-0.2,1.6-0.3,2L725,46.7c0.1-1.6,0.3-3.1,0.9-4.6
			c3.1-8.5,12.7-8.3,14.8-8.3c0.8,0,3.6,0,6.2,0.8c4.8,1.6,7.6,5.6,7.6,10.7c0,0.9-0.1,4.7-2.7,7.1c-0.5,0.5-0.8,0.6-1.8,1.3
			c1.4,0.4,2,0.7,2.6,1c1.9,1.2,4.3,3.8,4.3,9.1c0,6.4-3.4,11.5-9.5,13.4c-2.3,0.7-4.7,0.9-7.2,0.9c-1,0-1.9,0-2.9-0.1
			c-1.5-0.1-6.2-0.5-9.7-4.1c-4.1-4.1-4.4-10-4.5-11.6H734.3z"/>
	</g>
	<g clip-path="url(#SVGID_2_)">
		<defs>
			<rect id="SVGID_13_" width="1049.6" height="341"/>
		</defs>
		<clipPath id="SVGID_14_">
			<use xlink:href="#SVGID_13_"  overflow="visible"/>
		</clipPath>
		<path clip-path="url(#SVGID_14_)" fill="#89C543" d="M387.5,91.8c19.4,0,35.1-15.7,35.1-35.1c0-19.4-15.7-35.1-35.1-35.1
			c-19.4,0-35.1,15.7-35.1,35.1C352.5,76.1,368.2,91.8,387.5,91.8"/>
	</g>
	<g clip-path="url(#SVGID_2_)">
		<path fill="#FFFFFF" d="M403.1,68.1v10h-33.1c1.9-2.3,3.9-4.6,5.9-6.7l4.3-4.7c1.7-1.9,3.5-3.8,5.2-5.8c1.1-1.3,2.2-2.6,3.2-4
			c1.8-2.4,3.2-4.6,3.2-7.7c0-2.9-1.6-4.9-4.6-4.9c-3.3,0-5.3,2.8-5.3,5.9c0,0.5,0.1,1,0.1,1.5l-11.8-0.1c0.1-0.7,0.1-2.8,0.6-4.8
			c1.4-5.4,5.2-9.7,10.6-11.3c1.2-0.4,3.2-0.8,6.2-0.8c5.4,0,8.1,1.3,10.1,2.9c1.9,1.5,5,4.8,5,10.9c0,1.8-0.3,3.8-1,5.6
			c-1.9,5.3-7.1,10.3-11,14.1H403.1z"/>
	</g>
	<g clip-path="url(#SVGID_2_)">
		<defs>
			<rect id="SVGID_15_" width="1049.6" height="341"/>
		</defs>
		<clipPath id="SVGID_16_">
			<use xlink:href="#SVGID_15_"  overflow="visible"/>
		</clipPath>
		<path clip-path="url(#SVGID_16_)" fill="#FFBA05" d="M43.5,91.8c19.4,0,35.1-15.7,35.1-35.1c0-19.4-15.7-35.1-35.1-35.1
			S8.4,37.4,8.4,56.8C8.4,76.1,24.1,91.8,43.5,91.8"/>
	</g>
	<g clip-path="url(#SVGID_2_)">
		<path fill="#FFFFFF" d="M50.8,35.6V78h-11V45.8h-6.5V35.6H50.8z"/>
	</g>
</g>
</svg>
